<svg xmlns="http://www.w3.org/2000/svg" viewBox="0 0 64 64" fill="none">
  <defs>
    <linearGradient id="g" x1="0" y1="0" x2="1" y2="1">
      <stop offset="0" stop-color="#ffc107" />
      <stop offset="1" stop-color="#ff6f3c" />
    </linearGradient>
  </defs>
  <rect width="64" height="64" rx="12" fill="#0a0b10" />
  <path d="M22 28h20l-2 24H24l-2-24Z" fill="url(#g)" stroke="#ffe9b0" stroke-width="2" />
  <path d="M26 24h12c1.7 0 3 1.3 3 3v1H23v-1c0-1.7 1.3-3 3-3Z" fill="#1a1c24" stroke="#ffe9b0" stroke-width="2" />
  <path d="M28 18h8v4h-8z" fill="#ffe9b0" />
  <path d="M32 14l4 2v2h-8v-2l4-2Z" fill="#ffe9b0" />
  <path d="M21 18l2 5h18l2-5-4 2-3-3-4 2-4-2-3 3-4-2Z" fill="#ffc107" stroke="#ffe9b0" stroke-width="1.5" />
  <path d="M26 44h12" stroke="#ffe9b0" stroke-width="2" stroke-linecap="round" />
</svg>
